<svg xmlns="http://www.w3.org/2000/svg" viewBox="0 0 680 240" width="680" height="240">
  <g fill="#1E3A2A" transform="translate(50, 180) scale(0.1, -0.1)">
    <path d="M870 733Q870 618 838.5 508.0Q807 398 752.5 303.0Q698 208 626.5 136.0Q555 64 473.5 23.5Q392 -17 308 -17Q237 -17 197.5 20.0Q158 57 158 135Q158 217 193.5 292.0Q229 367 282.0 433.5Q335 500 390.0 556.0Q445 612 484.5 655.5Q524 699 531 729L536 716Q486 716 439.5 728.5Q393 741 350.0 757.5Q307 774 268.0 787.0Q229 800 193 802Q142 803 112.5 779.0Q83 755 81 722Q76 681 141 664Q181 654 200.5 636.5Q220 619 218 592Q216 568 197.5 554.0Q179 540 150 540Q103 540 73.5 576.0Q44 612 50 669Q56 729 91.0 777.5Q126 826 180.5 855.0Q235 884 298 884Q338 884 383.5 876.5Q429 869 469.0 861.0Q509 853 531 853Q546 853 554.5 859.5Q563 866 568.5 872.0Q574 878 579 878Q582 878 584.0 874.5Q586 871 585 864Q583 832 560.5 776.0Q538 720 505.5 649.5Q473 579 441.0 499.5Q409 420 387.5 339.5Q366 259 366 185Q366 117 386.0 85.5Q406 54 443 53Q497 53 560.0 99.0Q623 145 680.0 221.5Q737 298 774.0 392.0Q811 486 813 582Q816 624 802.5 644.0Q789 664 764 682Q729 705 714.0 730.5Q699 756 701 789Q703 815 715.5 836.5Q728 858 748.0 871.5Q768 885 791 885Q829 885 849.5 847.5Q870 810 870 733Z" transform="translate(0, 0)"/>
    <path d="M139 422Q139 422 178.0 436.5Q217 451 278.0 474.0Q339 497 404.5 521.5Q470 546 525.5 566.0Q581 586 608 595L589 577Q598 598 604.0 629.5Q610 661 610 709Q611 780 587.5 825.5Q564 871 524 871Q478 871 432.0 837.5Q386 804 345.5 741.5Q305 679 274.0 590.5Q243 502 228 391Q206 237 255.5 154.5Q305 72 409 72Q468 72 520.5 97.0Q573 122 617.5 172.5Q662 223 696 302Q699 307 701.5 309.5Q704 312 707 312Q710 311 711.0 307.0Q712 303 710 296Q671 197 611.0 127.0Q551 57 471.5 20.0Q392 -17 293 -17Q204 -17 141.5 25.5Q79 68 52.0 151.5Q25 235 41 356Q56 465 101.0 561.5Q146 658 213.0 732.0Q280 806 361.5 847.5Q443 889 531 889Q604 889 651.5 858.0Q699 827 722.5 776.0Q746 725 744 666Q744 655 750.0 649.5Q756 644 772 645Q778 646 780.5 644.5Q783 643 784 640Q785 637 782.5 634.5Q780 632 775 630Q764 627 713.5 609.0Q663 591 591.5 565.5Q520 540 442.0 512.5Q364 485 296.0 460.5Q228 436 185.5 421.0Q143 406 143 406Z" transform="translate(895, 0)"/>
    <path d="M643 1451Q702 1451 729.0 1431.0Q756 1411 756 1383Q756 1358 738.5 1342.5Q721 1327 689 1327Q667 1327 642.5 1336.0Q618 1345 593.5 1357.0Q569 1369 546.5 1378.0Q524 1387 504 1387Q482 1387 461.5 1369.5Q441 1352 427.5 1325.5Q414 1299 414 1272Q414 1250 423.5 1230.0Q433 1210 445.5 1188.0Q458 1166 468.0 1138.5Q478 1111 480.5 1077.0Q483 1043 470 998L235 205Q209 114 215.5 84.0Q222 54 249 54Q271 54 298.5 72.0Q326 90 367 141Q371 147 373.5 149.0Q376 151 379 150Q382 150 381.5 145.5Q381 141 377 133Q348 86 311.5 52.5Q275 19 231.0 1.0Q187 -17 138 -17Q91 -17 66.0 3.0Q41 23 37.5 63.0Q34 103 51 163L368 1240Q399 1347 467.5 1399.0Q536 1451 643 1451Z" transform="translate(1665, 0)"/>
    <path d="M889 164Q892 163 891.0 159.5Q890 156 887 152Q834 72 767.5 27.5Q701 -17 636 -17Q591 -17 567.0 4.0Q543 25 543 69Q543 101 556.5 149.5Q570 198 588.0 248.5Q606 299 621.0 340.5Q636 382 640 401L645 399Q591 283 530.0 203.0Q469 123 407.5 75.0Q346 27 288.5 5.0Q231 -17 182 -17Q121 -17 95.0 12.5Q69 42 70.5 96.5Q72 151 94 222L233 663Q262 756 253.5 785.5Q245 815 219 815Q198 815 170.0 796.5Q142 778 102 728Q97 721 94.5 719.5Q92 718 89 718Q87 719 87.0 723.5Q87 728 91 736Q134 807 194.5 846.0Q255 885 334 885Q383 885 407.5 865.5Q432 846 434.5 806.0Q437 766 417 705L273 246Q240 145 252.5 109.0Q265 73 309 73Q340 73 387.0 98.5Q434 124 488.0 181.0Q542 238 595.5 330.0Q649 422 693 555Q713 617 724.0 658.5Q735 700 739.0 726.0Q743 752 743 767Q743 784 736.0 794.0Q729 804 729 820Q729 847 770.5 866.0Q812 885 882 885Q930 885 938.5 864.0Q947 843 932 798L745 227Q713 132 719.0 99.5Q725 67 753 67Q775 67 803.5 85.5Q832 104 877 157Q880 161 883.5 163.0Q887 165 889 164Z" transform="translate(3000, 0)"/>
    <path d="M83 705Q82 706 82.0 708.5Q82 711 85 716Q121 770 162.5 807.5Q204 845 248.5 865.0Q293 885 337 885Q383 885 406.0 864.0Q429 843 429 802Q429 770 419.5 733.0Q410 696 392.5 646.0Q375 596 351.0 526.5Q327 457 297 362L291 365Q326 475 373.0 569.5Q420 664 474.0 735.0Q528 806 585.5 845.5Q643 885 701 885Q755 885 779.5 849.0Q804 813 799 758Q794 722 779.0 695.5Q764 669 740.5 654.0Q717 639 689 639Q662 639 644.0 653.5Q626 668 626 694Q626 714 630.5 731.0Q635 748 635 764Q635 784 629.0 795.0Q623 806 607 806Q566 806 510.5 751.0Q455 696 396.0 584.5Q337 473 286 304Q268 244 256.0 201.0Q244 158 244 126Q244 107 252.5 95.5Q261 84 269.5 76.5Q278 69 278 60Q278 46 254.0 27.5Q230 9 190.0 -4.0Q150 -17 103 -17Q72 -17 58.5 -4.0Q45 9 46.5 34.0Q48 59 59 96L228 641Q258 737 253.0 769.5Q248 802 219 802Q199 802 170.5 783.5Q142 765 96 712Q92 707 89.0 705.5Q86 704 83 705Z" transform="translate(3962, 0)"/>
    <path d="M717 225Q690 119 693.5 86.5Q697 54 726 54Q748 54 775.0 72.0Q802 90 842 141Q847 147 849.5 149.0Q852 151 855 150Q858 150 857.5 145.5Q857 141 853 133Q810 63 750.0 23.0Q690 -17 617 -17Q568 -17 545.0 6.0Q522 29 522 74Q522 93 527.0 124.0Q532 155 542.5 200.0Q553 245 569.0 304.5Q585 364 607 439L615 435Q563 299 501.5 197.5Q440 96 367.5 39.5Q295 -17 209 -17Q115 -17 67.5 56.5Q20 130 42 287Q53 381 93.0 469.5Q133 558 195.0 633.5Q257 709 336.5 765.5Q416 822 506.0 854.0Q596 886 692 886Q754 886 801.5 877.0Q849 868 876.5 856.0Q904 844 904 836Q904 827 896.0 823.0Q888 819 880.0 814.5Q872 810 870 800ZM217 260Q198 143 224.0 92.0Q250 41 294 41Q330 41 368.5 69.0Q407 97 447.0 154.0Q487 211 529.0 298.0Q571 385 613.0 502.0Q655 619 696 767Q709 815 704.5 841.0Q700 867 666 867Q603 867 543.0 833.0Q483 799 430.0 740.0Q377 681 333.5 603.5Q290 526 260.0 438.5Q230 351 217 260Z" transform="translate(4692, 0)"/>
  </g>
  <g transform="translate(306.25, 133.0) skewX(-12)">
    <ellipse cx="0" cy="0" rx="42" ry="48" fill="none" stroke="#1E3A2A" stroke-width="7"/>
    <ellipse cx="0"   cy="-20" rx="5" ry="14" fill="#1E3A2A"/>
    <ellipse cx="18"  cy="-9"  rx="5" ry="14" fill="#1E3A2A" transform="rotate(72 0 0)"/>
    <ellipse cx="11"  cy="17"  rx="5" ry="14" fill="#1E3A2A" transform="rotate(144 0 0)"/>
    <ellipse cx="-15" cy="11"  rx="5" ry="14" fill="#1E3A2A" transform="rotate(216 0 0)"/>
    <ellipse cx="-17" cy="-12" rx="5" ry="14" fill="#1E3A2A" transform="rotate(288 0 0)"/>
    <circle cx="0" cy="0" r="5" fill="#1E3A2A"/>
  </g>
</svg>